<svg xmlns="http://www.w3.org/2000/svg" width="18" height="18">
    <path fill="#EA4335"
        d="M9 3.48c1.69 0 2.83.73 3.48 1.34l2.56-2.56C13.46.89 11.43 0 9 0 5.48 0 2.44 2.02.96 4.96l2.98 2.32C4.73 5.09 6.67 3.48 9 3.48z" />
    <path fill="#4285F4"
        d="M17.64 9.2c0-.63-.06-1.25-.17-1.84H9v3.48h4.84c-.21 1.12-.84 2.07-1.79 2.71l2.77 2.15c1.62-1.49 2.82-3.69 2.82-6.5z" />
    <path fill="#FBBC05"
        d="M3.94 10.28A5.52 5.52 0 0 1 3.48 9c0-.44.07-.87.18-1.28L.68 5.4A8.996 8.996 0 0 0 0 9c0 1.45.35 2.82.96 4.04l2.98-2.32z" />
    <path fill="#34A853"
        d="M9 18c2.43 0 4.47-.8 5.96-2.16l-2.77-2.15c-.77.52-1.76.83-3.19.83-2.33 0-4.27-1.61-4.97-3.78L.96 13.04C2.44 15.98 5.48 18 9 18z" />
</svg>